<svg viewBox="0 0 1600 815" fill="none" xmlns="http://www.w3.org/2000/svg">
<path d="M0 544H1600V604L0 815V544Z" fill="#EF2A82"/>
<path d="M0 0H1600V587L0 798V0Z" fill="#172755"/>
<mask id="mask0" mask-type="alpha" maskUnits="userSpaceOnUse" x="0" y="-1" width="1600" height="799">
<path d="M0 -0.000244141H1600V587L0 798V-0.000244141Z" fill="#172755"/>
</mask>
<g mask="url(#mask0)">
<g opacity="0.07">
<path d="M1832.47 274.985C1702.93 85.9868 1485.44 -38 1239 -38C841.907 -38 520 283.907 520 681C520 738.771 526.814 794.95 539.681 848.779L905.824 482.636C940.922 447.538 997.828 447.538 1032.93 482.636L1328.88 778.585L1832.47 274.985Z" fill="#8794BA"/>
<path d="M1917.93 443.734L1392.43 969.239C1357.33 1004.34 1300.42 1004.34 1265.32 969.239L969.375 673.29L611.104 1031.56C734.1 1251.39 969.195 1400 1239 1400C1636.09 1400 1958 1078.09 1958 681C1958 597.861 1943.89 518.017 1917.93 443.734Z" fill="#8794BA"/>
</g>
</g>
<g opacity="0.07">
<path d="M204.811 -260.07C99.9582 -251.949 0.766599 -193.957 -55.7883 -96.0008C-146.915 61.8358 -92.8366 263.661 65.0001 354.788C87.9629 368.045 111.857 378.229 136.205 385.468L74.6953 155.909C68.7989 133.903 81.8579 111.284 103.863 105.388L289.413 55.67L204.811 -260.07Z" fill="#8794BA"/>
<path d="M291.496 -255.312L379.778 74.1618C385.675 96.1674 372.616 118.786 350.61 124.683L165.061 174.401L225.248 399.024C340.852 400.583 453.872 341.241 515.788 233.999C606.916 76.1625 552.837 -125.662 395 -216.789C361.954 -235.868 326.979 -248.582 291.496 -255.312Z" fill="#8794BA"/>
</g>
</svg>
