<svg viewBox="0 0 40 40" fill="none" xmlns="http://www.w3.org/2000/svg">
<path d="M8.70613 3.49167C3.44887 7.09524 -1.17388e-06 13.1449 -8.74228e-07 20C-3.91405e-07 31.0457 8.9543 40 20 40C21.607 40 23.1697 39.8105 24.667 39.4526L14.4822 29.2678C13.5059 28.2915 13.5059 26.7085 14.4822 25.7322L22.7145 17.5L8.70613 3.49167Z" fill="#EF2A82"/>
<path d="M13.4001 1.11458L28.0178 15.7322C28.9941 16.7085 28.9941 18.2915 28.0178 19.2678L19.7855 27.5L29.7514 37.4658C35.8662 34.0445 40 27.505 40 20C40 8.9543 31.0457 1.02713e-06 20 1.50996e-06C17.6874 1.61105e-06 15.4664 0.392534 13.4001 1.11458Z" fill="#EF2A82"/>
</svg>
