<svg viewBox="0 0 671 480" fill="none" xmlns="http://www.w3.org/2000/svg">
<g filter="url(#filter0_d)">
<rect x="35.1294" y="17" width="600" height="410" rx="30" fill="white"/>
</g>
<path d="M146.144 157.077L255.129 94.1547L364.115 157.077V282.923L255.129 345.845L146.144 282.923V157.077Z" stroke="#EEEEF7" stroke-width="2"/>
<path d="M184.249 179.077L255.129 138.155L326.01 179.077V260.923L255.129 301.845L184.249 260.923V179.077Z" stroke="#EEEEF7" stroke-width="2"/>
<path d="M197.543 187.015L255.493 139.292L337.209 171.394L343.06 269.403L255.475 321.468L191.206 254.278L197.543 187.015Z" stroke="#0088F0" stroke-width="4"/>
<path d="M171.651 172.392L254.491 126.637L300.369 194.966L330.571 264H255.403L202.919 249.338L171.651 172.392Z" stroke="#EF2A82" stroke-width="4"/>
<path d="M231.015 206.077L255.129 192.155L279.244 206.077V233.923L255.129 247.845L231.015 233.923V206.077Z" stroke="#EEEEF7" stroke-width="2"/>
<path d="M495.638 153.252H498.314C499.995 153.226 501.317 152.783 502.28 151.923C503.242 151.063 503.724 149.902 503.724 148.439C503.724 145.153 502.087 143.51 498.814 143.51C497.274 143.51 496.042 143.953 495.118 144.838C494.207 145.711 493.751 146.873 493.751 148.323H490.189C490.189 146.103 490.998 144.261 492.615 142.798C494.245 141.322 496.312 140.584 498.814 140.584C501.458 140.584 503.531 141.283 505.033 142.682C506.535 144.081 507.285 146.026 507.285 148.516C507.285 149.735 506.887 150.916 506.092 152.058C505.309 153.2 504.237 154.054 502.877 154.619C504.417 155.106 505.604 155.915 506.438 157.044C507.285 158.174 507.709 159.554 507.709 161.184C507.709 163.699 506.887 165.695 505.245 167.171C503.602 168.647 501.465 169.385 498.834 169.385C496.202 169.385 494.059 168.673 492.403 167.248C490.761 165.823 489.939 163.943 489.939 161.607H493.52C493.52 163.083 494.001 164.264 494.964 165.15C495.927 166.035 497.216 166.478 498.834 166.478C500.554 166.478 501.869 166.029 502.78 165.13C503.692 164.232 504.147 162.942 504.147 161.261C504.147 159.631 503.647 158.379 502.646 157.506C501.644 156.634 500.201 156.184 498.314 156.159H495.638V153.252ZM527.635 159.586H531.524V162.493H527.635V169H524.054V162.493H511.29V160.394L523.842 140.969H527.635V159.586ZM515.333 159.586H524.054V145.84L523.631 146.61L515.333 159.586ZM534.431 146.359C534.431 144.678 534.964 143.292 536.029 142.201C537.107 141.11 538.487 140.564 540.168 140.564C541.875 140.564 543.255 141.116 544.307 142.22C545.373 143.311 545.905 144.729 545.905 146.475V147.842C545.905 149.536 545.366 150.922 544.288 152C543.223 153.066 541.862 153.598 540.207 153.598C538.538 153.598 537.158 153.066 536.067 152C534.976 150.922 534.431 149.491 534.431 147.707V146.359ZM537.088 147.842C537.088 148.843 537.37 149.671 537.935 150.325C538.5 150.967 539.257 151.288 540.207 151.288C541.118 151.288 541.85 150.973 542.401 150.345C542.966 149.716 543.249 148.856 543.249 147.765V146.359C543.249 145.358 542.973 144.53 542.421 143.876C541.869 143.221 541.118 142.894 540.168 142.894C539.218 142.894 538.468 143.221 537.916 143.876C537.364 144.53 537.088 145.384 537.088 146.436V147.842ZM548.081 162.127C548.081 160.446 548.613 159.066 549.679 157.988C550.757 156.897 552.137 156.351 553.818 156.351C555.499 156.351 556.879 156.89 557.957 157.968C559.035 159.047 559.574 160.478 559.574 162.262V163.629C559.574 165.31 559.035 166.696 557.957 167.787C556.892 168.865 555.525 169.404 553.857 169.404C552.188 169.404 550.808 168.872 549.717 167.806C548.626 166.728 548.081 165.297 548.081 163.513V162.127ZM550.738 163.629C550.738 164.643 551.02 165.477 551.585 166.131C552.149 166.773 552.907 167.094 553.857 167.094C554.781 167.094 555.519 166.78 556.071 166.151C556.622 165.509 556.898 164.643 556.898 163.552V162.127C556.898 161.113 556.616 160.285 556.051 159.643C555.499 159.002 554.755 158.681 553.818 158.681C552.907 158.681 552.162 159.002 551.585 159.643C551.02 160.272 550.738 161.126 550.738 162.204V163.629ZM541.015 166.882L538.994 165.612L552.682 143.703L554.704 144.973L541.015 166.882Z" fill="#EF2A82"/>
<path d="M488.929 195.157C488.929 194.226 489.111 193.388 489.474 192.644C489.843 191.899 490.353 191.325 491.003 190.921C491.66 190.517 492.407 190.314 493.245 190.314C494.54 190.314 495.585 190.763 496.382 191.659C497.185 192.556 497.586 193.748 497.586 195.236V195.351C497.586 196.276 497.408 197.108 497.05 197.847C496.699 198.579 496.192 199.15 495.53 199.561C494.874 199.971 494.118 200.176 493.262 200.176C491.973 200.176 490.927 199.728 490.125 198.831C489.328 197.935 488.929 196.748 488.929 195.271V195.157ZM490.564 195.351C490.564 196.405 490.807 197.252 491.293 197.891C491.786 198.529 492.442 198.849 493.262 198.849C494.088 198.849 494.745 198.526 495.231 197.882C495.717 197.231 495.96 196.323 495.96 195.157C495.96 194.114 495.711 193.271 495.213 192.626C494.721 191.976 494.065 191.65 493.245 191.65C492.442 191.65 491.794 191.97 491.302 192.608C490.81 193.247 490.564 194.161 490.564 195.351ZM507.659 195.351C507.659 196.798 507.328 197.964 506.666 198.849C506.003 199.733 505.107 200.176 503.976 200.176C502.822 200.176 501.914 199.81 501.251 199.077V203.656H499.625V190.49H501.111L501.19 191.545C501.852 190.725 502.772 190.314 503.95 190.314C505.092 190.314 505.995 190.745 506.657 191.606C507.325 192.468 507.659 193.666 507.659 195.201V195.351ZM506.033 195.166C506.033 194.094 505.804 193.247 505.347 192.626C504.89 192.005 504.263 191.694 503.466 191.694C502.482 191.694 501.744 192.131 501.251 193.004V197.548C501.738 198.415 502.482 198.849 503.484 198.849C504.263 198.849 504.881 198.541 505.338 197.926C505.801 197.305 506.033 196.385 506.033 195.166ZM511.939 188.188V190.49H513.714V191.747H511.939V197.645C511.939 198.025 512.018 198.312 512.176 198.506C512.334 198.693 512.604 198.787 512.985 198.787C513.172 198.787 513.43 198.752 513.758 198.682V200C513.331 200.117 512.915 200.176 512.51 200.176C511.784 200.176 511.236 199.956 510.867 199.517C510.498 199.077 510.313 198.453 510.313 197.645V191.747H508.582V190.49H510.313V188.188H511.939ZM517.388 200H515.762V190.49H517.388V200ZM515.63 187.968C515.63 187.704 515.709 187.481 515.868 187.3C516.032 187.118 516.272 187.027 516.588 187.027C516.905 187.027 517.145 187.118 517.309 187.3C517.473 187.481 517.555 187.704 517.555 187.968C517.555 188.231 517.473 188.451 517.309 188.627C517.145 188.803 516.905 188.891 516.588 188.891C516.272 188.891 516.032 188.803 515.868 188.627C515.709 188.451 515.63 188.231 515.63 187.968ZM519.568 195.157C519.568 194.226 519.75 193.388 520.113 192.644C520.482 191.899 520.992 191.325 521.642 190.921C522.298 190.517 523.045 190.314 523.883 190.314C525.178 190.314 526.224 190.763 527.021 191.659C527.824 192.556 528.225 193.748 528.225 195.236V195.351C528.225 196.276 528.046 197.108 527.689 197.847C527.337 198.579 526.831 199.15 526.168 199.561C525.512 199.971 524.756 200.176 523.901 200.176C522.612 200.176 521.566 199.728 520.763 198.831C519.966 197.935 519.568 196.748 519.568 195.271V195.157ZM521.203 195.351C521.203 196.405 521.446 197.252 521.932 197.891C522.424 198.529 523.081 198.849 523.901 198.849C524.727 198.849 525.383 198.526 525.87 197.882C526.356 197.231 526.599 196.323 526.599 195.157C526.599 194.114 526.35 193.271 525.852 192.626C525.36 191.976 524.704 191.65 523.883 191.65C523.081 191.65 522.433 191.97 521.941 192.608C521.449 193.247 521.203 194.161 521.203 195.351ZM531.802 190.49L531.855 191.686C532.582 190.771 533.531 190.314 534.703 190.314C536.712 190.314 537.726 191.448 537.744 193.716V200H536.118V193.707C536.112 193.021 535.954 192.515 535.643 192.187C535.338 191.858 534.861 191.694 534.21 191.694C533.683 191.694 533.22 191.835 532.822 192.116C532.423 192.397 532.113 192.767 531.89 193.224V200H530.264V190.49H531.802ZM549.837 200H548.203V189.163L544.924 190.367V188.891L549.583 187.142H549.837V200Z" fill="#8794BA"/>
<path d="M508.826 281H490.459V278.439L500.162 267.658C501.6 266.028 502.588 264.706 503.127 263.692C503.679 262.665 503.955 261.607 503.955 260.516C503.955 259.052 503.512 257.852 502.626 256.915C501.741 255.979 500.56 255.51 499.084 255.51C497.313 255.51 495.933 256.017 494.945 257.031C493.969 258.032 493.482 259.431 493.482 261.228H489.92C489.92 258.648 490.748 256.562 492.403 254.971C494.072 253.379 496.299 252.584 499.084 252.584C501.689 252.584 503.749 253.27 505.264 254.644C506.778 256.004 507.536 257.82 507.536 260.092C507.536 262.852 505.777 266.137 502.261 269.949L494.752 278.093H508.826V281ZM526.249 268.679C525.504 269.564 524.612 270.277 523.573 270.816C522.546 271.355 521.417 271.624 520.184 271.624C518.567 271.624 517.155 271.226 515.949 270.431C514.755 269.635 513.831 268.518 513.177 267.081C512.522 265.63 512.195 264.032 512.195 262.287C512.195 260.413 512.548 258.725 513.254 257.223C513.972 255.722 514.986 254.573 516.295 253.777C517.605 252.982 519.132 252.584 520.877 252.584C523.65 252.584 525.832 253.623 527.423 255.703C529.028 257.769 529.83 260.593 529.83 264.174V265.213C529.83 270.668 528.752 274.653 526.595 277.169C524.439 279.672 521.185 280.955 516.834 281.019H516.141V278.016H516.892C519.831 277.965 522.09 277.201 523.669 275.725C525.248 274.236 526.108 271.887 526.249 268.679ZM520.762 268.679C521.956 268.679 523.053 268.313 524.054 267.581C525.068 266.85 525.806 265.945 526.268 264.867V263.442C526.268 261.106 525.761 259.206 524.747 257.743C523.733 256.28 522.45 255.549 520.897 255.549C519.331 255.549 518.073 256.152 517.123 257.358C516.173 258.552 515.699 260.131 515.699 262.094C515.699 264.007 516.154 265.585 517.066 266.83C517.99 268.062 519.222 268.679 520.762 268.679ZM534.431 258.359C534.431 256.678 534.964 255.292 536.029 254.201C537.107 253.11 538.487 252.564 540.168 252.564C541.875 252.564 543.255 253.116 544.307 254.22C545.373 255.311 545.905 256.729 545.905 258.475V259.842C545.905 261.536 545.366 262.922 544.288 264C543.223 265.066 541.862 265.598 540.207 265.598C538.538 265.598 537.158 265.066 536.067 264C534.976 262.922 534.431 261.491 534.431 259.707V258.359ZM537.088 259.842C537.088 260.843 537.37 261.671 537.935 262.325C538.5 262.967 539.257 263.288 540.207 263.288C541.118 263.288 541.85 262.973 542.401 262.345C542.966 261.716 543.249 260.856 543.249 259.765V258.359C543.249 257.358 542.973 256.53 542.421 255.876C541.869 255.221 541.118 254.894 540.168 254.894C539.218 254.894 538.468 255.221 537.916 255.876C537.364 256.53 537.088 257.384 537.088 258.436V259.842ZM548.081 274.127C548.081 272.446 548.613 271.066 549.679 269.988C550.757 268.897 552.137 268.351 553.818 268.351C555.499 268.351 556.879 268.89 557.957 269.968C559.035 271.047 559.574 272.478 559.574 274.262V275.629C559.574 277.31 559.035 278.696 557.957 279.787C556.892 280.865 555.525 281.404 553.857 281.404C552.188 281.404 550.808 280.872 549.717 279.806C548.626 278.728 548.081 277.297 548.081 275.513V274.127ZM550.738 275.629C550.738 276.643 551.02 277.477 551.585 278.131C552.149 278.773 552.907 279.094 553.857 279.094C554.781 279.094 555.519 278.78 556.071 278.151C556.622 277.509 556.898 276.643 556.898 275.552V274.127C556.898 273.113 556.616 272.285 556.051 271.643C555.499 271.002 554.755 270.681 553.818 270.681C552.907 270.681 552.162 271.002 551.585 271.643C551.02 272.272 550.738 273.126 550.738 274.204V275.629ZM541.015 278.882L538.994 277.612L552.682 255.703L554.704 256.973L541.015 278.882Z" fill="#0088F0"/>
<path d="M488.929 307.157C488.929 306.226 489.111 305.388 489.474 304.644C489.843 303.899 490.353 303.325 491.003 302.921C491.66 302.517 492.407 302.314 493.245 302.314C494.54 302.314 495.585 302.763 496.382 303.659C497.185 304.556 497.586 305.748 497.586 307.236V307.351C497.586 308.276 497.408 309.108 497.05 309.847C496.699 310.579 496.192 311.15 495.53 311.561C494.874 311.971 494.118 312.176 493.262 312.176C491.973 312.176 490.927 311.728 490.125 310.831C489.328 309.935 488.929 308.748 488.929 307.271V307.157ZM490.564 307.351C490.564 308.405 490.807 309.252 491.293 309.891C491.786 310.529 492.442 310.849 493.262 310.849C494.088 310.849 494.745 310.526 495.231 309.882C495.717 309.231 495.96 308.323 495.96 307.157C495.96 306.114 495.711 305.271 495.213 304.626C494.721 303.976 494.065 303.65 493.245 303.65C492.442 303.65 491.794 303.97 491.302 304.608C490.81 305.247 490.564 306.161 490.564 307.351ZM507.659 307.351C507.659 308.798 507.328 309.964 506.666 310.849C506.003 311.733 505.107 312.176 503.976 312.176C502.822 312.176 501.914 311.81 501.251 311.077V315.656H499.625V302.49H501.111L501.19 303.545C501.852 302.725 502.772 302.314 503.95 302.314C505.092 302.314 505.995 302.745 506.657 303.606C507.325 304.468 507.659 305.666 507.659 307.201V307.351ZM506.033 307.166C506.033 306.094 505.804 305.247 505.347 304.626C504.89 304.005 504.263 303.694 503.466 303.694C502.482 303.694 501.744 304.131 501.251 305.004V309.548C501.738 310.415 502.482 310.849 503.484 310.849C504.263 310.849 504.881 310.541 505.338 309.926C505.801 309.305 506.033 308.385 506.033 307.166ZM511.939 300.188V302.49H513.714V303.747H511.939V309.645C511.939 310.025 512.018 310.312 512.176 310.506C512.334 310.693 512.604 310.787 512.985 310.787C513.172 310.787 513.43 310.752 513.758 310.682V312C513.331 312.117 512.915 312.176 512.51 312.176C511.784 312.176 511.236 311.956 510.867 311.517C510.498 311.077 510.313 310.453 510.313 309.645V303.747H508.582V302.49H510.313V300.188H511.939ZM517.388 312H515.762V302.49H517.388V312ZM515.63 299.968C515.63 299.704 515.709 299.481 515.868 299.3C516.032 299.118 516.272 299.027 516.588 299.027C516.905 299.027 517.145 299.118 517.309 299.3C517.473 299.481 517.555 299.704 517.555 299.968C517.555 300.231 517.473 300.451 517.309 300.627C517.145 300.803 516.905 300.891 516.588 300.891C516.272 300.891 516.032 300.803 515.868 300.627C515.709 300.451 515.63 300.231 515.63 299.968ZM519.568 307.157C519.568 306.226 519.75 305.388 520.113 304.644C520.482 303.899 520.992 303.325 521.642 302.921C522.298 302.517 523.045 302.314 523.883 302.314C525.178 302.314 526.224 302.763 527.021 303.659C527.824 304.556 528.225 305.748 528.225 307.236V307.351C528.225 308.276 528.046 309.108 527.689 309.847C527.337 310.579 526.831 311.15 526.168 311.561C525.512 311.971 524.756 312.176 523.901 312.176C522.612 312.176 521.566 311.728 520.763 310.831C519.966 309.935 519.568 308.748 519.568 307.271V307.157ZM521.203 307.351C521.203 308.405 521.446 309.252 521.932 309.891C522.424 310.529 523.081 310.849 523.901 310.849C524.727 310.849 525.383 310.526 525.87 309.882C526.356 309.231 526.599 308.323 526.599 307.157C526.599 306.114 526.35 305.271 525.852 304.626C525.36 303.976 524.704 303.65 523.883 303.65C523.081 303.65 522.433 303.97 521.941 304.608C521.449 305.247 521.203 306.161 521.203 307.351ZM531.802 302.49L531.855 303.686C532.582 302.771 533.531 302.314 534.703 302.314C536.712 302.314 537.726 303.448 537.744 305.716V312H536.118V305.707C536.112 305.021 535.954 304.515 535.643 304.187C535.338 303.858 534.861 303.694 534.21 303.694C533.683 303.694 533.22 303.835 532.822 304.116C532.423 304.397 532.113 304.767 531.89 305.224V312H530.264V302.49H531.802ZM552.878 312H544.494V310.831L548.923 305.909C549.58 305.165 550.031 304.562 550.277 304.099C550.529 303.63 550.655 303.146 550.655 302.648C550.655 301.98 550.453 301.433 550.048 301.005C549.644 300.577 549.105 300.363 548.431 300.363C547.623 300.363 546.993 300.595 546.542 301.058C546.096 301.515 545.874 302.153 545.874 302.974H544.248C544.248 301.796 544.625 300.844 545.381 300.117C546.143 299.391 547.16 299.027 548.431 299.027C549.621 299.027 550.561 299.341 551.252 299.968C551.944 300.589 552.29 301.418 552.29 302.455C552.29 303.715 551.487 305.215 549.881 306.955L546.454 310.673H552.878V312Z" fill="#8794BA"/>
<path d="M244.766 81H243.676V73.7754L241.491 74.5781V73.5938L244.596 72.4277H244.766V81ZM253.116 74.6953C253.116 75.1211 253.002 75.5 252.776 75.832C252.553 76.1641 252.25 76.4238 251.868 76.6113C252.313 76.8027 252.665 77.082 252.922 77.4492C253.184 77.8164 253.315 78.2324 253.315 78.6973C253.315 79.4355 253.065 80.0234 252.565 80.4609C252.069 80.8984 251.415 81.1172 250.602 81.1172C249.782 81.1172 249.124 80.8984 248.627 80.4609C248.135 80.0195 247.889 79.4316 247.889 78.6973C247.889 78.2363 248.014 77.8203 248.264 77.4492C248.518 77.0781 248.868 76.7969 249.313 76.6055C248.934 76.418 248.635 76.1582 248.417 75.8262C248.198 75.4941 248.088 75.1172 248.088 74.6953C248.088 73.9766 248.319 73.4062 248.78 72.9844C249.241 72.5625 249.848 72.3516 250.602 72.3516C251.352 72.3516 251.958 72.5625 252.418 72.9844C252.883 73.4062 253.116 73.9766 253.116 74.6953ZM252.231 78.6738C252.231 78.1973 252.079 77.8086 251.774 77.5078C251.473 77.207 251.079 77.0566 250.59 77.0566C250.102 77.0566 249.709 77.2051 249.413 77.502C249.12 77.7988 248.973 78.1895 248.973 78.6738C248.973 79.1582 249.116 79.5391 249.401 79.8164C249.69 80.0938 250.09 80.2324 250.602 80.2324C251.11 80.2324 251.508 80.0938 251.797 79.8164C252.086 79.5352 252.231 79.1543 252.231 78.6738ZM250.602 73.2422C250.176 73.2422 249.831 73.375 249.565 73.6406C249.303 73.9023 249.172 74.2598 249.172 74.7129C249.172 75.1465 249.301 75.498 249.559 75.7676C249.821 76.0332 250.168 76.166 250.602 76.166C251.036 76.166 251.381 76.0332 251.639 75.7676C251.901 75.498 252.032 75.1465 252.032 74.7129C252.032 74.2793 251.897 73.9258 251.627 73.6523C251.358 73.3789 251.016 73.2422 250.602 73.2422ZM257.047 77.8184H254.188V76.9336H257.047V77.8184ZM263.586 81H257.997V80.2207L260.95 76.9395C261.387 76.4434 261.688 76.041 261.852 75.7324C262.02 75.4199 262.104 75.0977 262.104 74.7656C262.104 74.3203 261.969 73.9551 261.7 73.6699C261.43 73.3848 261.071 73.2422 260.622 73.2422C260.083 73.2422 259.663 73.3965 259.362 73.7051C259.065 74.0098 258.917 74.4355 258.917 74.9824H257.833C257.833 74.1973 258.084 73.5625 258.588 73.0781C259.096 72.5938 259.774 72.3516 260.622 72.3516C261.415 72.3516 262.042 72.5605 262.502 72.9785C262.963 73.3926 263.194 73.9453 263.194 74.6367C263.194 75.4766 262.659 76.4766 261.588 77.6367L259.303 80.1152H263.586V81ZM269.311 78.1348H270.495V79.0195H269.311V81H268.221V79.0195H264.336V78.3809L268.157 72.4688H269.311V78.1348ZM265.567 78.1348H268.221V73.9512L268.092 74.1855L265.567 78.1348Z" fill="#8794BA"/>
<path d="M387.793 159H382.204V158.221L385.157 154.939C385.594 154.443 385.895 154.041 386.059 153.732C386.227 153.42 386.311 153.098 386.311 152.766C386.311 152.32 386.176 151.955 385.907 151.67C385.637 151.385 385.278 151.242 384.829 151.242C384.29 151.242 383.87 151.396 383.569 151.705C383.272 152.01 383.124 152.436 383.124 152.982H382.04C382.04 152.197 382.292 151.562 382.795 151.078C383.303 150.594 383.981 150.352 384.829 150.352C385.622 150.352 386.249 150.561 386.709 150.979C387.17 151.393 387.401 151.945 387.401 152.637C387.401 153.477 386.866 154.477 385.795 155.637L383.51 158.115H387.793V159ZM389.44 154.723L389.874 150.469H394.245V151.471H390.793L390.536 153.797C390.954 153.551 391.428 153.428 391.959 153.428C392.737 153.428 393.354 153.686 393.811 154.201C394.268 154.713 394.497 155.406 394.497 156.281C394.497 157.16 394.258 157.854 393.782 158.361C393.309 158.865 392.647 159.117 391.795 159.117C391.042 159.117 390.426 158.908 389.95 158.49C389.473 158.072 389.202 157.494 389.135 156.756H390.161C390.227 157.244 390.401 157.613 390.682 157.863C390.963 158.109 391.334 158.232 391.795 158.232C392.299 158.232 392.694 158.061 392.979 157.717C393.268 157.373 393.413 156.898 393.413 156.293C393.413 155.723 393.256 155.266 392.944 154.922C392.635 154.574 392.223 154.4 391.708 154.4C391.235 154.4 390.864 154.504 390.594 154.711L390.307 154.945L389.44 154.723ZM398.047 155.818H395.188V154.934H398.047V155.818ZM400.573 154.207H401.387C401.899 154.199 402.301 154.064 402.594 153.803C402.887 153.541 403.034 153.188 403.034 152.742C403.034 151.742 402.536 151.242 401.54 151.242C401.071 151.242 400.696 151.377 400.415 151.646C400.137 151.912 399.999 152.266 399.999 152.707H398.915C398.915 152.031 399.161 151.471 399.653 151.025C400.149 150.576 400.778 150.352 401.54 150.352C402.344 150.352 402.975 150.564 403.432 150.99C403.889 151.416 404.118 152.008 404.118 152.766C404.118 153.137 403.997 153.496 403.754 153.844C403.516 154.191 403.19 154.451 402.776 154.623C403.245 154.771 403.606 155.018 403.86 155.361C404.118 155.705 404.247 156.125 404.247 156.621C404.247 157.387 403.997 157.994 403.497 158.443C402.997 158.893 402.346 159.117 401.545 159.117C400.745 159.117 400.092 158.9 399.588 158.467C399.088 158.033 398.838 157.461 398.838 156.75H399.928C399.928 157.199 400.075 157.559 400.368 157.828C400.661 158.098 401.053 158.232 401.545 158.232C402.069 158.232 402.469 158.096 402.747 157.822C403.024 157.549 403.163 157.156 403.163 156.645C403.163 156.148 403.01 155.768 402.706 155.502C402.401 155.236 401.961 155.1 401.387 155.092H400.573V154.207ZM410.311 156.135H411.495V157.02H410.311V159H409.221V157.02H405.336V156.381L409.157 150.469H410.311V156.135ZM406.567 156.135H409.221V151.951L409.092 152.186L406.567 156.135Z" fill="#8794BA"/>
<path d="M383.78 285.207H384.594C385.106 285.199 385.508 285.064 385.801 284.803C386.094 284.541 386.241 284.188 386.241 283.742C386.241 282.742 385.743 282.242 384.747 282.242C384.278 282.242 383.903 282.377 383.622 282.646C383.344 282.912 383.206 283.266 383.206 283.707H382.122C382.122 283.031 382.368 282.471 382.86 282.025C383.356 281.576 383.985 281.352 384.747 281.352C385.551 281.352 386.182 281.564 386.639 281.99C387.096 282.416 387.325 283.008 387.325 283.766C387.325 284.137 387.204 284.496 386.961 284.844C386.723 285.191 386.397 285.451 385.983 285.623C386.452 285.771 386.813 286.018 387.067 286.361C387.325 286.705 387.454 287.125 387.454 287.621C387.454 288.387 387.204 288.994 386.704 289.443C386.204 289.893 385.553 290.117 384.752 290.117C383.952 290.117 383.299 289.9 382.795 289.467C382.295 289.033 382.045 288.461 382.045 287.75H383.135C383.135 288.199 383.282 288.559 383.575 288.828C383.868 289.098 384.26 289.232 384.752 289.232C385.276 289.232 385.676 289.096 385.954 288.822C386.231 288.549 386.37 288.156 386.37 287.645C386.37 287.148 386.217 286.768 385.913 286.502C385.608 286.236 385.168 286.1 384.594 286.092H383.78V285.207ZM389.44 285.723L389.874 281.469H394.245V282.471H390.793L390.536 284.797C390.954 284.551 391.428 284.428 391.959 284.428C392.737 284.428 393.354 284.686 393.811 285.201C394.268 285.713 394.497 286.406 394.497 287.281C394.497 288.16 394.258 288.854 393.782 289.361C393.309 289.865 392.647 290.117 391.795 290.117C391.042 290.117 390.426 289.908 389.95 289.49C389.473 289.072 389.202 288.494 389.135 287.756H390.161C390.227 288.244 390.401 288.613 390.682 288.863C390.963 289.109 391.334 289.232 391.795 289.232C392.299 289.232 392.694 289.061 392.979 288.717C393.268 288.373 393.413 287.898 393.413 287.293C393.413 286.723 393.256 286.266 392.944 285.922C392.635 285.574 392.223 285.4 391.708 285.4C391.235 285.4 390.864 285.504 390.594 285.711L390.307 285.945L389.44 285.723ZM398.047 286.818H395.188V285.934H398.047V286.818ZM403.573 287.135H404.756V288.02H403.573V290H402.483V288.02H398.598V287.381L402.418 281.469H403.573V287.135ZM399.829 287.135H402.483V282.951L402.354 283.186L399.829 287.135ZM410.311 287.135H411.495V288.02H410.311V290H409.221V288.02H405.336V287.381L409.157 281.469H410.311V287.135ZM406.567 287.135H409.221V282.951L409.092 283.186L406.567 287.135Z" fill="#8794BA"/>
<path d="M245.78 372.135H246.963V373.02H245.78V375H244.69V373.02H240.805V372.381L244.625 366.469H245.78V372.135ZM242.036 372.135H244.69V367.951L244.561 368.186L242.036 372.135ZM248.44 370.723L248.874 366.469H253.245V367.471H249.793L249.536 369.797C249.954 369.551 250.428 369.428 250.959 369.428C251.737 369.428 252.354 369.686 252.811 370.201C253.268 370.713 253.497 371.406 253.497 372.281C253.497 373.16 253.258 373.854 252.782 374.361C252.309 374.865 251.647 375.117 250.795 375.117C250.042 375.117 249.426 374.908 248.95 374.49C248.473 374.072 248.202 373.494 248.135 372.756H249.161C249.227 373.244 249.401 373.613 249.682 373.863C249.963 374.109 250.334 374.232 250.795 374.232C251.299 374.232 251.694 374.061 251.979 373.717C252.268 373.373 252.413 372.898 252.413 372.293C252.413 371.723 252.256 371.266 251.944 370.922C251.635 370.574 251.223 370.4 250.708 370.4C250.235 370.4 249.864 370.504 249.594 370.711L249.307 370.945L248.44 370.723ZM257.047 371.818H254.188V370.934H257.047V371.818ZM258.495 370.723L258.928 366.469H263.299V367.471H259.848L259.59 369.797C260.008 369.551 260.483 369.428 261.014 369.428C261.792 369.428 262.409 369.686 262.866 370.201C263.323 370.713 263.551 371.406 263.551 372.281C263.551 373.16 263.313 373.854 262.836 374.361C262.364 374.865 261.702 375.117 260.85 375.117C260.096 375.117 259.481 374.908 259.004 374.49C258.528 374.072 258.256 373.494 258.19 372.756H259.215C259.282 373.244 259.456 373.613 259.737 373.863C260.018 374.109 260.389 374.232 260.85 374.232C261.354 374.232 261.749 374.061 262.034 373.717C262.323 373.373 262.467 372.898 262.467 372.293C262.467 371.723 262.311 371.266 261.999 370.922C261.69 370.574 261.278 370.4 260.762 370.4C260.29 370.4 259.918 370.504 259.649 370.711L259.362 370.945L258.495 370.723ZM269.311 372.135H270.495V373.02H269.311V375H268.221V373.02H264.336V372.381L268.157 366.469H269.311V372.135ZM265.567 372.135H268.221V367.951L268.092 368.186L265.567 372.135Z" fill="#8794BA"/>
<path d="M100.702 285.723L101.135 281.469H105.506V282.471H102.055L101.797 284.797C102.215 284.551 102.69 284.428 103.221 284.428C103.999 284.428 104.616 284.686 105.073 285.201C105.53 285.713 105.758 286.406 105.758 287.281C105.758 288.16 105.52 288.854 105.043 289.361C104.571 289.865 103.909 290.117 103.057 290.117C102.303 290.117 101.688 289.908 101.211 289.49C100.735 289.072 100.463 288.494 100.397 287.756H101.422C101.489 288.244 101.663 288.613 101.944 288.863C102.225 289.109 102.596 289.232 103.057 289.232C103.561 289.232 103.956 289.061 104.241 288.717C104.53 288.373 104.674 287.898 104.674 287.293C104.674 286.723 104.518 286.266 104.206 285.922C103.897 285.574 103.485 285.4 102.969 285.4C102.497 285.4 102.125 285.504 101.856 285.711L101.569 285.945L100.702 285.723ZM107.44 285.723L107.874 281.469H112.245V282.471H108.793L108.536 284.797C108.954 284.551 109.428 284.428 109.959 284.428C110.737 284.428 111.354 284.686 111.811 285.201C112.268 285.713 112.497 286.406 112.497 287.281C112.497 288.16 112.258 288.854 111.782 289.361C111.309 289.865 110.647 290.117 109.795 290.117C109.042 290.117 108.426 289.908 107.95 289.49C107.473 289.072 107.202 288.494 107.135 287.756H108.161C108.227 288.244 108.401 288.613 108.682 288.863C108.963 289.109 109.334 289.232 109.795 289.232C110.299 289.232 110.694 289.061 110.979 288.717C111.268 288.373 111.413 287.898 111.413 287.293C111.413 286.723 111.256 286.266 110.944 285.922C110.635 285.574 110.223 285.4 109.708 285.4C109.235 285.4 108.864 285.504 108.594 285.711L108.307 285.945L107.44 285.723ZM116.047 286.818H113.188V285.934H116.047V286.818ZM121.25 281.463V282.383H121.051C120.208 282.398 119.536 282.648 119.036 283.133C118.536 283.617 118.247 284.299 118.168 285.178C118.618 284.662 119.231 284.404 120.008 284.404C120.75 284.404 121.342 284.666 121.784 285.189C122.229 285.713 122.452 286.389 122.452 287.217C122.452 288.096 122.211 288.799 121.731 289.326C121.254 289.854 120.614 290.117 119.809 290.117C118.993 290.117 118.331 289.805 117.823 289.18C117.315 288.551 117.061 287.742 117.061 286.754V286.338C117.061 284.768 117.395 283.568 118.063 282.74C118.735 281.908 119.733 281.482 121.057 281.463H121.25ZM119.827 285.307C119.456 285.307 119.114 285.418 118.801 285.641C118.489 285.863 118.272 286.143 118.151 286.479V286.877C118.151 287.58 118.309 288.146 118.625 288.576C118.942 289.006 119.336 289.221 119.809 289.221C120.297 289.221 120.68 289.041 120.958 288.682C121.239 288.322 121.379 287.852 121.379 287.27C121.379 286.684 121.237 286.211 120.952 285.852C120.67 285.488 120.295 285.307 119.827 285.307ZM128.311 287.135H129.495V288.02H128.311V290H127.221V288.02H123.336V287.381L127.157 281.469H128.311V287.135ZM124.567 287.135H127.221V282.951L127.092 283.186L124.567 287.135Z" fill="#8794BA"/>
<path d="M109.45 150.463V151.383H109.25C108.407 151.398 107.735 151.648 107.235 152.133C106.735 152.617 106.446 153.299 106.368 154.178C106.817 153.662 107.43 153.404 108.208 153.404C108.95 153.404 109.542 153.666 109.983 154.189C110.428 154.713 110.651 155.389 110.651 156.217C110.651 157.096 110.411 157.799 109.93 158.326C109.454 158.854 108.813 159.117 108.008 159.117C107.192 159.117 106.53 158.805 106.022 158.18C105.514 157.551 105.26 156.742 105.26 155.754V155.338C105.26 153.768 105.594 152.568 106.262 151.74C106.934 150.908 107.932 150.482 109.256 150.463H109.45ZM108.026 154.307C107.655 154.307 107.313 154.418 107 154.641C106.688 154.863 106.471 155.143 106.35 155.479V155.877C106.35 156.58 106.508 157.146 106.825 157.576C107.141 158.006 107.536 158.221 108.008 158.221C108.497 158.221 108.879 158.041 109.157 157.682C109.438 157.322 109.579 156.852 109.579 156.27C109.579 155.684 109.436 155.211 109.151 154.852C108.87 154.488 108.495 154.307 108.026 154.307ZM112.432 154.723L112.866 150.469H117.237V151.471H113.786L113.528 153.797C113.946 153.551 114.42 153.428 114.952 153.428C115.729 153.428 116.346 153.686 116.803 154.201C117.26 154.713 117.489 155.406 117.489 156.281C117.489 157.16 117.25 157.854 116.774 158.361C116.301 158.865 115.639 159.117 114.788 159.117C114.034 159.117 113.418 158.908 112.942 158.49C112.465 158.072 112.194 157.494 112.127 156.756H113.153C113.219 157.244 113.393 157.613 113.674 157.863C113.956 158.109 114.327 158.232 114.788 158.232C115.292 158.232 115.686 158.061 115.971 157.717C116.26 157.373 116.405 156.898 116.405 156.293C116.405 155.723 116.249 155.266 115.936 154.922C115.627 154.574 115.215 154.4 114.7 154.4C114.227 154.4 113.856 154.504 113.586 154.711L113.299 154.945L112.432 154.723ZM121.889 154.424H124.268V155.449H121.889V158.145H120.799V155.449H118.42V154.424H120.799V151.934H121.889V154.424Z" fill="#8794BA"/>
<defs>
<filter id="filter0_d" x="0.129395" y="0" width="670" height="480" filterUnits="userSpaceOnUse" color-interpolation-filters="sRGB">
<feFlood flood-opacity="0" result="BackgroundImageFix"/>
<feColorMatrix in="SourceAlpha" type="matrix" values="0 0 0 0 0 0 0 0 0 0 0 0 0 0 0 0 0 0 127 0"/>
<feMorphology radius="15" operator="erode" in="SourceAlpha" result="effect1_dropShadow"/>
<feOffset dy="18"/>
<feGaussianBlur stdDeviation="25"/>
<feColorMatrix type="matrix" values="0 0 0 0 0.0996452 0 0 0 0 0.164326 0 0 0 0 0.350284 0 0 0 0.2 0"/>
<feBlend mode="normal" in2="BackgroundImageFix" result="effect1_dropShadow"/>
<feBlend mode="normal" in="SourceGraphic" in2="effect1_dropShadow" result="shape"/>
</filter>
</defs>
</svg>
