<svg viewBox="0 0 670 480" fill="none" xmlns="http://www.w3.org/2000/svg">
<g filter="url(#filter0_d)">
<rect x="35" y="17" width="600" height="410" rx="30" fill="white"/>
</g>
<rect x="134" y="89" width="1" height="271" fill="#EEEEF7"/>
<rect x="197" y="89" width="1" height="271" fill="#EEEEF7"/>
<rect x="260" y="89" width="1" height="271" fill="#EEEEF7"/>
<rect x="323" y="89" width="1" height="271" fill="#EEEEF7"/>
<rect x="386" y="89" width="1" height="271" fill="#EEEEF7"/>
<rect x="449" y="89" width="1" height="271" fill="#EEEEF7"/>
<rect x="512" y="89" width="1" height="271" fill="#EEEEF7"/>
<rect x="575" y="89" width="1" height="271" fill="#EEEEF7"/>
<path d="M93.9375 109.723L94.3711 105.469H98.7422V106.471H95.291L95.0332 108.797C95.4512 108.551 95.9258 108.428 96.457 108.428C97.2344 108.428 97.8516 108.686 98.3086 109.201C98.7656 109.713 98.9941 110.406 98.9941 111.281C98.9941 112.16 98.7559 112.854 98.2793 113.361C97.8066 113.865 97.1445 114.117 96.293 114.117C95.5391 114.117 94.9238 113.908 94.4473 113.49C93.9707 113.072 93.6992 112.494 93.6328 111.756H94.6582C94.7246 112.244 94.8984 112.613 95.1797 112.863C95.4609 113.109 95.832 113.232 96.293 113.232C96.7969 113.232 97.1914 113.061 97.4766 112.717C97.7656 112.373 97.9102 111.898 97.9102 111.293C97.9102 110.723 97.7539 110.266 97.4414 109.922C97.1328 109.574 96.7207 109.4 96.2051 109.4C95.7324 109.4 95.3613 109.504 95.0918 109.711L94.8047 109.945L93.9375 109.723ZM104.754 111.135H105.938V112.02H104.754V114H103.664V112.02H99.7793V111.381L103.6 105.469H104.754V111.135ZM101.01 111.135H103.664V106.951L103.535 107.186L101.01 111.135ZM109.283 110.818H106.424V109.934H109.283V110.818ZM114.486 105.463V106.383H114.287C113.443 106.398 112.771 106.648 112.271 107.133C111.771 107.617 111.482 108.299 111.404 109.178C111.854 108.662 112.467 108.404 113.244 108.404C113.986 108.404 114.578 108.666 115.02 109.189C115.465 109.713 115.688 110.389 115.688 111.217C115.688 112.096 115.447 112.799 114.967 113.326C114.49 113.854 113.85 114.117 113.045 114.117C112.229 114.117 111.566 113.805 111.059 113.18C110.551 112.551 110.297 111.742 110.297 110.754V110.338C110.297 108.768 110.631 107.568 111.299 106.74C111.971 105.908 112.969 105.482 114.293 105.463H114.486ZM113.062 109.307C112.691 109.307 112.35 109.418 112.037 109.641C111.725 109.863 111.508 110.143 111.387 110.479V110.877C111.387 111.58 111.545 112.146 111.861 112.576C112.178 113.006 112.572 113.221 113.045 113.221C113.533 113.221 113.916 113.041 114.193 112.682C114.475 112.322 114.615 111.852 114.615 111.27C114.615 110.684 114.473 110.211 114.188 109.852C113.906 109.488 113.531 109.307 113.062 109.307ZM117.469 109.723L117.902 105.469H122.273V106.471H118.822L118.564 108.797C118.982 108.551 119.457 108.428 119.988 108.428C120.766 108.428 121.383 108.686 121.84 109.201C122.297 109.713 122.525 110.406 122.525 111.281C122.525 112.16 122.287 112.854 121.811 113.361C121.338 113.865 120.676 114.117 119.824 114.117C119.07 114.117 118.455 113.908 117.979 113.49C117.502 113.072 117.23 112.494 117.164 111.756H118.189C118.256 112.244 118.43 112.613 118.711 112.863C118.992 113.109 119.363 113.232 119.824 113.232C120.328 113.232 120.723 113.061 121.008 112.717C121.297 112.373 121.441 111.898 121.441 111.293C121.441 110.723 121.285 110.266 120.973 109.922C120.664 109.574 120.252 109.4 119.736 109.4C119.264 109.4 118.893 109.504 118.623 109.711L118.336 109.945L117.469 109.723Z" fill="#8794BA"/>
<path d="M98.0156 167.135H99.1992V168.02H98.0156V170H96.9258V168.02H93.041V167.381L96.8613 161.469H98.0156V167.135ZM94.2715 167.135H96.9258V162.951L96.7969 163.186L94.2715 167.135ZM100.676 165.723L101.109 161.469H105.48V162.471H102.029L101.771 164.797C102.189 164.551 102.664 164.428 103.195 164.428C103.973 164.428 104.59 164.686 105.047 165.201C105.504 165.713 105.732 166.406 105.732 167.281C105.732 168.16 105.494 168.854 105.018 169.361C104.545 169.865 103.883 170.117 103.031 170.117C102.277 170.117 101.662 169.908 101.186 169.49C100.709 169.072 100.438 168.494 100.371 167.756H101.396C101.463 168.244 101.637 168.613 101.918 168.863C102.199 169.109 102.57 169.232 103.031 169.232C103.535 169.232 103.93 169.061 104.215 168.717C104.504 168.373 104.648 167.898 104.648 167.293C104.648 166.723 104.492 166.266 104.18 165.922C103.871 165.574 103.459 165.4 102.943 165.4C102.471 165.4 102.1 165.504 101.83 165.711L101.543 165.945L100.676 165.723ZM109.283 166.818H106.424V165.934H109.283V166.818ZM110.73 165.723L111.164 161.469H115.535V162.471H112.084L111.826 164.797C112.244 164.551 112.719 164.428 113.25 164.428C114.027 164.428 114.645 164.686 115.102 165.201C115.559 165.713 115.787 166.406 115.787 167.281C115.787 168.16 115.549 168.854 115.072 169.361C114.6 169.865 113.938 170.117 113.086 170.117C112.332 170.117 111.717 169.908 111.24 169.49C110.764 169.072 110.492 168.494 110.426 167.756H111.451C111.518 168.244 111.691 168.613 111.973 168.863C112.254 169.109 112.625 169.232 113.086 169.232C113.59 169.232 113.984 169.061 114.27 168.717C114.559 168.373 114.703 167.898 114.703 167.293C114.703 166.723 114.547 166.266 114.234 165.922C113.926 165.574 113.514 165.4 112.998 165.4C112.525 165.4 112.154 165.504 111.885 165.711L111.598 165.945L110.73 165.723ZM121.547 167.135H122.73V168.02H121.547V170H120.457V168.02H116.572V167.381L120.393 161.469H121.547V167.135ZM117.803 167.135H120.457V162.951L120.328 163.186L117.803 167.135Z" fill="#8794BA"/>
<path d="M95.0156 221.207H95.8301C96.3418 221.199 96.7441 221.064 97.0371 220.803C97.3301 220.541 97.4766 220.188 97.4766 219.742C97.4766 218.742 96.9785 218.242 95.9824 218.242C95.5137 218.242 95.1387 218.377 94.8574 218.646C94.5801 218.912 94.4414 219.266 94.4414 219.707H93.3574C93.3574 219.031 93.6035 218.471 94.0957 218.025C94.5918 217.576 95.2207 217.352 95.9824 217.352C96.7871 217.352 97.418 217.564 97.875 217.99C98.332 218.416 98.5605 219.008 98.5605 219.766C98.5605 220.137 98.4395 220.496 98.1973 220.844C97.959 221.191 97.6328 221.451 97.2188 221.623C97.6875 221.771 98.0488 222.018 98.3027 222.361C98.5605 222.705 98.6895 223.125 98.6895 223.621C98.6895 224.387 98.4395 224.994 97.9395 225.443C97.4395 225.893 96.7891 226.117 95.9883 226.117C95.1875 226.117 94.5352 225.9 94.0312 225.467C93.5312 225.033 93.2812 224.461 93.2812 223.75H94.3711C94.3711 224.199 94.5176 224.559 94.8105 224.828C95.1035 225.098 95.4961 225.232 95.9883 225.232C96.5117 225.232 96.9121 225.096 97.1895 224.822C97.4668 224.549 97.6055 224.156 97.6055 223.645C97.6055 223.148 97.4531 222.768 97.1484 222.502C96.8438 222.236 96.4043 222.1 95.8301 222.092H95.0156V221.207ZM100.676 221.723L101.109 217.469H105.48V218.471H102.029L101.771 220.797C102.189 220.551 102.664 220.428 103.195 220.428C103.973 220.428 104.59 220.686 105.047 221.201C105.504 221.713 105.732 222.406 105.732 223.281C105.732 224.16 105.494 224.854 105.018 225.361C104.545 225.865 103.883 226.117 103.031 226.117C102.277 226.117 101.662 225.908 101.186 225.49C100.709 225.072 100.438 224.494 100.371 223.756H101.396C101.463 224.244 101.637 224.613 101.918 224.863C102.199 225.109 102.57 225.232 103.031 225.232C103.535 225.232 103.93 225.061 104.215 224.717C104.504 224.373 104.648 223.898 104.648 223.293C104.648 222.723 104.492 222.266 104.18 221.922C103.871 221.574 103.459 221.4 102.943 221.4C102.471 221.4 102.1 221.504 101.83 221.711L101.543 221.945L100.676 221.723ZM109.283 222.818H106.424V221.934H109.283V222.818ZM114.809 223.135H115.992V224.02H114.809V226H113.719V224.02H109.834V223.381L113.654 217.469H114.809V223.135ZM111.064 223.135H113.719V218.951L113.59 219.186L111.064 223.135ZM121.547 223.135H122.73V224.02H121.547V226H120.457V224.02H116.572V223.381L120.393 217.469H121.547V223.135ZM117.803 223.135H120.457V218.951L120.328 219.186L117.803 223.135Z" fill="#8794BA"/>
<path d="M99.0293 282H93.4395V281.221L96.3926 277.939C96.8301 277.443 97.1309 277.041 97.2949 276.732C97.4629 276.42 97.5469 276.098 97.5469 275.766C97.5469 275.32 97.4121 274.955 97.1426 274.67C96.873 274.385 96.5137 274.242 96.0645 274.242C95.5254 274.242 95.1055 274.396 94.8047 274.705C94.5078 275.01 94.3594 275.436 94.3594 275.982H93.2754C93.2754 275.197 93.5273 274.562 94.0312 274.078C94.5391 273.594 95.2168 273.352 96.0645 273.352C96.8574 273.352 97.4844 273.561 97.9453 273.979C98.4062 274.393 98.6367 274.945 98.6367 275.637C98.6367 276.477 98.1016 277.477 97.0312 278.637L94.7461 281.115H99.0293V282ZM100.676 277.723L101.109 273.469H105.48V274.471H102.029L101.771 276.797C102.189 276.551 102.664 276.428 103.195 276.428C103.973 276.428 104.59 276.686 105.047 277.201C105.504 277.713 105.732 278.406 105.732 279.281C105.732 280.16 105.494 280.854 105.018 281.361C104.545 281.865 103.883 282.117 103.031 282.117C102.277 282.117 101.662 281.908 101.186 281.49C100.709 281.072 100.438 280.494 100.371 279.756H101.396C101.463 280.244 101.637 280.613 101.918 280.863C102.199 281.109 102.57 281.232 103.031 281.232C103.535 281.232 103.93 281.061 104.215 280.717C104.504 280.373 104.648 279.898 104.648 279.293C104.648 278.723 104.492 278.266 104.18 277.922C103.871 277.574 103.459 277.4 102.943 277.4C102.471 277.4 102.1 277.504 101.83 277.711L101.543 277.945L100.676 277.723ZM109.283 278.818H106.424V277.934H109.283V278.818ZM111.809 277.207H112.623C113.135 277.199 113.537 277.064 113.83 276.803C114.123 276.541 114.27 276.188 114.27 275.742C114.27 274.742 113.771 274.242 112.775 274.242C112.307 274.242 111.932 274.377 111.65 274.646C111.373 274.912 111.234 275.266 111.234 275.707H110.15C110.15 275.031 110.396 274.471 110.889 274.025C111.385 273.576 112.014 273.352 112.775 273.352C113.58 273.352 114.211 273.564 114.668 273.99C115.125 274.416 115.354 275.008 115.354 275.766C115.354 276.137 115.232 276.496 114.99 276.844C114.752 277.191 114.426 277.451 114.012 277.623C114.48 277.771 114.842 278.018 115.096 278.361C115.354 278.705 115.482 279.125 115.482 279.621C115.482 280.387 115.232 280.994 114.732 281.443C114.232 281.893 113.582 282.117 112.781 282.117C111.98 282.117 111.328 281.9 110.824 281.467C110.324 281.033 110.074 280.461 110.074 279.75H111.164C111.164 280.199 111.311 280.559 111.604 280.828C111.896 281.098 112.289 281.232 112.781 281.232C113.305 281.232 113.705 281.096 113.982 280.822C114.26 280.549 114.398 280.156 114.398 279.645C114.398 279.148 114.246 278.768 113.941 278.502C113.637 278.236 113.197 278.1 112.623 278.092H111.809V277.207ZM121.547 279.135H122.73V280.02H121.547V282H120.457V280.02H116.572V279.381L120.393 273.469H121.547V279.135ZM117.803 279.135H120.457V274.951L120.328 275.186L117.803 279.135Z" fill="#8794BA"/>
<path d="M97.002 338H95.9121V330.775L93.7266 331.578V330.594L96.832 329.428H97.002V338ZM105.352 331.695C105.352 332.121 105.238 332.5 105.012 332.832C104.789 333.164 104.486 333.424 104.104 333.611C104.549 333.803 104.9 334.082 105.158 334.449C105.42 334.816 105.551 335.232 105.551 335.697C105.551 336.436 105.301 337.023 104.801 337.461C104.305 337.898 103.65 338.117 102.838 338.117C102.018 338.117 101.359 337.898 100.863 337.461C100.371 337.02 100.125 336.432 100.125 335.697C100.125 335.236 100.25 334.82 100.5 334.449C100.754 334.078 101.104 333.797 101.549 333.605C101.17 333.418 100.871 333.158 100.652 332.826C100.434 332.494 100.324 332.117 100.324 331.695C100.324 330.977 100.555 330.406 101.016 329.984C101.477 329.562 102.084 329.352 102.838 329.352C103.588 329.352 104.193 329.562 104.654 329.984C105.119 330.406 105.352 330.977 105.352 331.695ZM104.467 335.674C104.467 335.197 104.314 334.809 104.01 334.508C103.709 334.207 103.314 334.057 102.826 334.057C102.338 334.057 101.945 334.205 101.648 334.502C101.355 334.799 101.209 335.189 101.209 335.674C101.209 336.158 101.352 336.539 101.637 336.816C101.926 337.094 102.326 337.232 102.838 337.232C103.346 337.232 103.744 337.094 104.033 336.816C104.322 336.535 104.467 336.154 104.467 335.674ZM102.838 330.242C102.412 330.242 102.066 330.375 101.801 330.641C101.539 330.902 101.408 331.26 101.408 331.713C101.408 332.146 101.537 332.498 101.795 332.768C102.057 333.033 102.404 333.166 102.838 333.166C103.271 333.166 103.617 333.033 103.875 332.768C104.137 332.498 104.268 332.146 104.268 331.713C104.268 331.279 104.133 330.926 103.863 330.652C103.594 330.379 103.252 330.242 102.838 330.242ZM109.283 334.818H106.424V333.934H109.283V334.818ZM115.822 338H110.232V337.221L113.186 333.939C113.623 333.443 113.924 333.041 114.088 332.732C114.256 332.42 114.34 332.098 114.34 331.766C114.34 331.32 114.205 330.955 113.936 330.67C113.666 330.385 113.307 330.242 112.857 330.242C112.318 330.242 111.898 330.396 111.598 330.705C111.301 331.01 111.152 331.436 111.152 331.982H110.068C110.068 331.197 110.32 330.562 110.824 330.078C111.332 329.594 112.01 329.352 112.857 329.352C113.65 329.352 114.277 329.561 114.738 329.979C115.199 330.393 115.43 330.945 115.43 331.637C115.43 332.477 114.895 333.477 113.824 334.637L111.539 337.115H115.822V338ZM121.547 335.135H122.73V336.02H121.547V338H120.457V336.02H116.572V335.381L120.393 329.469H121.547V335.135ZM117.803 335.135H120.457V330.951L120.328 331.186L117.803 335.135Z" fill="#8794BA"/>
<path d="M134 96H390.5C393.538 96 396 98.4624 396 101.5V101.5C396 104.538 393.538 107 390.5 107H134V96Z" fill="#EF2A82"/>
<path d="M134 153H303.5C306.538 153 309 155.462 309 158.5V158.5C309 161.538 306.538 164 303.5 164H134V153Z" fill="#EF2A82"/>
<path d="M134 210H144.5C147.538 210 150 212.462 150 215.5V215.5C150 218.538 147.538 221 144.5 221H134V210Z" fill="#EF2A82"/>
<path d="M134 267H176.5C179.538 267 182 269.462 182 272.5V272.5C182 275.538 179.538 278 176.5 278H134V267Z" fill="#EF2A82"/>
<path d="M134 324H336.5C339.538 324 342 326.462 342 329.5V329.5C342 332.538 339.538 335 336.5 335H134V324Z" fill="#EF2A82"/>
<path d="M134 110H276.5C279.538 110 282 112.462 282 115.5V115.5C282 118.538 279.538 121 276.5 121H134V110Z" fill="#0088F0"/>
<path d="M134 167H336.5C339.538 167 342 169.462 342 172.5V172.5C342 175.538 339.538 178 336.5 178H134V167Z" fill="#0088F0"/>
<path d="M134 224H176.5C179.538 224 182 226.462 182 229.5V229.5C182 232.538 179.538 235 176.5 235H134V224Z" fill="#0088F0"/>
<path d="M134 281H467.5C470.538 281 473 283.462 473 286.5V286.5C473 289.538 470.538 292 467.5 292H134V281Z" fill="#0088F0"/>
<path d="M134 338H524.5C527.538 338 530 340.462 530 343.5V343.5C530 346.538 527.538 349 524.5 349H134V338Z" fill="#0088F0"/>
<defs>
<filter id="filter0_d" x="0" y="0" width="670" height="480" filterUnits="userSpaceOnUse" color-interpolation-filters="sRGB">
<feFlood flood-opacity="0" result="BackgroundImageFix"/>
<feColorMatrix in="SourceAlpha" type="matrix" values="0 0 0 0 0 0 0 0 0 0 0 0 0 0 0 0 0 0 127 0"/>
<feMorphology radius="15" operator="erode" in="SourceAlpha" result="effect1_dropShadow"/>
<feOffset dy="18"/>
<feGaussianBlur stdDeviation="25"/>
<feColorMatrix type="matrix" values="0 0 0 0 0.0996452 0 0 0 0 0.164326 0 0 0 0 0.350284 0 0 0 0.2 0"/>
<feBlend mode="normal" in2="BackgroundImageFix" result="effect1_dropShadow"/>
<feBlend mode="normal" in="SourceGraphic" in2="effect1_dropShadow" result="shape"/>
</filter>
</defs>
</svg>
